<svg width="1949" height="504" viewBox="0 0 1949 504" fill="none" xmlns="http://www.w3.org/2000/svg">
<path fill-rule="evenodd" clip-rule="evenodd" d="M251.656 0L311.155 80.1449L280.707 102.749L251.979 64.0524L224.975 101.203L194.3 78.9072L251.656 0ZM430.735 74.2249L415.495 170.577L378.04 164.653L385.215 119.288L337.538 126.337L331.991 88.8235L430.735 74.2249ZM73.6308 74.5906L172.374 89.1892L166.828 126.703L119.151 119.654L126.326 165.018L88.8704 170.943L73.6308 74.5906ZM64.0524 252.387L102.749 223.659L80.1449 193.211L0 252.71L78.9072 310.065L101.203 279.391L64.0524 252.387ZM423.855 193.211L504 252.71L425.093 310.065L402.797 279.391L439.948 252.387L401.251 223.659L423.855 193.211ZM119.471 385.215L126.52 337.538L89.0064 331.991L74.4078 430.735L170.76 415.495L164.836 378.04L119.471 385.215ZM415.542 332.174L430.141 430.918L333.789 415.678L339.713 378.222L385.077 385.397L378.029 337.721L415.542 332.174ZM311.155 423.855L251.656 504L194.3 425.093L224.975 402.797L251.979 439.948L280.707 401.251L311.155 423.855Z" fill="white"/>
<path d="M614 366.965H720.488C765.694 366.965 793.154 338.769 793.154 298.49C793.154 270.965 777.75 251.161 755.649 242.434C773.731 232.699 786.456 213.566 786.456 190.741C786.456 154.825 759.332 132 716.469 132H614V366.965ZM655.189 329.035V261.566H714.795C738.235 261.566 751.295 273.315 751.295 294.797C751.295 316.28 737.901 329.035 714.795 329.035H655.189ZM655.189 225.986V169.93H710.776C731.538 169.93 744.598 179.329 744.598 197.79C744.598 215.58 732.208 225.986 710.776 225.986H655.189Z" fill="white"/>
<path d="M869.731 366.965H904.557V331.72H885.47C877.433 331.72 874.42 328.364 874.42 320.643V132H834.57V334.406C834.57 357.902 845.286 366.965 869.731 366.965Z" fill="white"/>
<path d="M1006.7 372C1057.26 372 1092.09 337.091 1092.09 285.063C1092.09 233.035 1057.26 198.126 1006.7 198.126C956.467 198.126 921.641 233.035 921.641 285.063C921.641 337.091 956.467 372 1006.7 372ZM962.83 285.063C962.83 254.853 980.243 234.378 1006.7 234.378C1033.15 234.378 1050.9 254.853 1050.9 285.063C1050.9 315.273 1033.15 335.748 1006.7 335.748C980.243 335.748 962.83 315.273 962.83 285.063Z" fill="white"/>
<path d="M1156.7 366.965H1203.91L1236.06 248.14L1267.87 366.965H1315.09L1363.98 203.161H1322.46L1290.64 322.322L1258.83 203.161H1212.96L1181.14 322.322L1149.33 203.161H1107.81L1156.7 366.965Z" fill="white"/>
<path d="M1416.77 178.657V203.161H1374.91V238.406H1416.77V366.965H1456.62V238.406H1509.19V203.161H1456.62V183.021C1456.62 171.944 1462.98 167.245 1473.36 167.245H1519.24V132H1464.32C1434.52 132 1416.77 148.448 1416.77 178.657Z" fill="white"/>
<path d="M1540.24 366.965H1580.09V203.161H1540.24V366.965ZM1538.9 174.629H1581.76V133.678H1538.9V174.629Z" fill="white"/>
<path d="M1685.79 372C1729.32 372 1756.44 350.853 1756.44 317.958C1756.44 290.769 1738.7 272.643 1707.89 268.951L1681.43 265.93C1665.03 263.916 1657.32 258.545 1657.32 248.811C1657.32 237.399 1668.04 230.685 1685.12 230.685C1703.2 230.685 1714.59 236.727 1715.26 249.818H1755.11C1753.1 215.58 1726.98 198.126 1685.79 198.126C1644.26 198.126 1618.14 218.266 1618.14 250.825C1618.14 278.685 1637.23 296.811 1667.71 300.168L1693.82 302.853C1708.22 304.196 1716.26 309.566 1716.26 319.972C1716.26 332.056 1705.21 339.776 1687.13 339.776C1667.04 339.776 1655.32 333.063 1653.98 319.301H1612.79C1614.46 353.874 1641.25 372 1685.79 372Z" fill="white"/>
<path d="M1788.98 366.965H1828.83V273.315C1828.83 249.818 1843.23 234.378 1865 234.378C1886.1 234.378 1898.15 246.462 1898.15 271.972V366.965H1938V267.944C1938 223.636 1913.22 198.126 1873.04 198.126C1854.95 198.126 1839.21 204.168 1828.83 215.916V132H1788.98V366.965Z" fill="white"/>
</svg>
